# Blender 3.3.1
# www.blender.org
o Plane
v -2.598100 -0.500000 1.500000
v 2.598100 -0.500000 1.500000
v -2.598100 -0.500000 -1.500000
v 2.598100 -0.500000 -1.500000
v 0.000000 -0.500000 3.000000
v 2.598100 -0.500000 -1.500000
v 0.000000 -0.500000 -3.000000
v -2.598100 -0.500000 1.500000
v -2.598100 0.500000 1.500000
v 2.598100 0.500000 1.500000
v -2.598100 0.500000 -1.500000
v 2.598100 0.500000 -1.500000
v 0.000000 0.500000 3.000000
v 2.598100 0.500000 -1.500000
v 0.000000 0.500000 -3.000000
v -2.598100 0.500000 1.500000
vn -0.0000 -1.0000 -0.0000
vn -0.0000 1.0000 -0.0000
vn -1.0000 -0.0000 -0.0000
vn 0.5000 -0.0000 -0.8660
vn 0.5000 -0.0000 0.8660
vn -0.5000 -0.0000 0.8660
vn -0.5000 -0.0000 -0.8660
vn 1.0000 -0.0000 -0.0000
vt 0.000000 0.000000
vt 1.000000 0.000000
vt 0.000000 1.000000
vt 1.000000 1.000000
vt 0.500000 0.000000
vt 1.000000 1.000000
vt 0.500000 1.000000
vt 0.000000 0.000000
vt 0.000000 0.000000
vt 1.000000 0.000000
vt 0.000000 1.000000
vt 1.000000 1.000000
vt 0.500000 0.000000
vt 1.000000 1.000000
vt 0.500000 1.000000
vt 0.000000 0.000000
s 0
f 2/2/1 1/1/1 7/7/1
f 5/5/2 8/8/2 1/1/2
f 14/14/2 11/11/2 13/13/2
f 13/13/2 9/9/2 16/16/2
f 1/1/2 16/16/2 9/9/2
f 1/1/3 11/11/3 3/3/3
f 7/7/4 14/14/4 6/6/4
f 2/2/5 13/13/5 5/5/5
f 4/4/2 14/14/2 12/12/2
f 5/5/6 16/16/6 8/8/6
f 3/3/7 15/15/7 7/7/7
f 4/4/8 10/10/8 2/2/8
f 6/6/2 4/4/2 2/2/2
f 2/2/1 5/5/1 1/1/1
f 1/1/1 3/3/1 7/7/1
f 7/7/1 6/6/1 2/2/1
f 10/10/2 12/12/2 14/14/2
f 14/14/2 15/15/2 11/11/2
f 11/11/2 9/9/2 13/13/2
f 13/13/2 10/10/2 14/14/2
f 1/1/2 8/8/2 16/16/2
f 1/1/3 9/9/3 11/11/3
f 7/7/4 15/15/4 14/14/4
f 2/2/5 10/10/5 13/13/5
f 4/4/2 6/6/2 14/14/2
f 5/5/6 13/13/6 16/16/6
f 3/3/7 11/11/7 15/15/7
f 4/4/8 12/12/8 10/10/8
